HIERARCHY
ROOT Hips
{
	OFFSET -0.001795 -0.223333 0.028219
	CHANNELS 6 Xposition Yposition Zposition Zrotation Yrotation Xrotation 
	JOINT LeftUpLeg
	{
		OFFSET 0.069520 -0.091406 -0.006815
		CHANNELS 3 Zrotation Yrotation Xrotation
		JOINT LeftLeg
		{
			OFFSET 0.034277 -0.375199 -0.004496
			CHANNELS 3 Zrotation Yrotation Xrotation
			JOINT LeftFoot
			{
				OFFSET -0.013596 -0.397961 -0.043693
				CHANNELS 3 Zrotation Yrotation Xrotation
				JOINT LeftToe
				{
					OFFSET 0.026358 -0.055791 0.119288
					CHANNELS 3 Zrotation Yrotation Xrotation
					End Site
					{
						OFFSET 0.000000 0.000000 0.000000
					}
				}
			}
		}
	}
	JOINT RightUpLeg
	{
		OFFSET -0.067670 -0.090522 -0.004320
		CHANNELS 3 Zrotation Yrotation Xrotation
		JOINT RightLeg
		{
			OFFSET -0.038290 -0.382569 -0.008850
			CHANNELS 3 Zrotation Yrotation Xrotation
			JOINT RightFoot
			{
				OFFSET 0.015774 -0.398415 -0.042312
				CHANNELS 3 Zrotation Yrotation Xrotation
				JOINT RightToe
				{
					OFFSET -0.025372 -0.048144 0.123348
					CHANNELS 3 Zrotation Yrotation Xrotation
					End Site
					{
						OFFSET 0.000000 0.000000 0.000000
					}
				}
			}
		}
	}
	JOINT Spine
	{
		OFFSET -0.002533 0.108963 -0.026696
		CHANNELS 3 Zrotation Yrotation Xrotation
		JOINT Spine1
		{
			OFFSET 0.005487 0.135180 0.001092
			CHANNELS 3 Zrotation Yrotation Xrotation
			JOINT Spine2
			{
				OFFSET 0.001457 0.052922 0.025425
				CHANNELS 3 Zrotation Yrotation Xrotation
				JOINT Neck
				{
					OFFSET -0.002778 0.213870 -0.042857
					CHANNELS 3 Zrotation Yrotation Xrotation
					JOINT Head
					{
						OFFSET 0.005152 0.064970 0.051349
						CHANNELS 3 Zrotation Yrotation Xrotation
						End Site
						{
							OFFSET 0.000000 0.000000 0.000000
						}
					}
				}
				JOINT LeftShoulder
				{
					OFFSET 0.078845 0.121749 -0.034090
					CHANNELS 3 Zrotation Yrotation Xrotation
					JOINT LeftArm
					{
						OFFSET 0.090977 0.030469 -0.008868
						CHANNELS 3 Zrotation Yrotation Xrotation
						JOINT LeftForeArm
						{
							OFFSET 0.259612 -0.012772 -0.027456
							CHANNELS 3 Zrotation Yrotation Xrotation
							JOINT LeftHand
							{
								OFFSET 0.249234 0.008986 -0.001171
								CHANNELS 3 Zrotation Yrotation Xrotation
								End Site
								{
									OFFSET 0.000000 0.000000 0.000000
								}
							}
						}
					}
				}
				JOINT RightShoulder
				{
					OFFSET -0.081759 0.118833 -0.038615
					CHANNELS 3 Zrotation Yrotation Xrotation
					JOINT RightArm
					{
						OFFSET -0.096012 0.032551 -0.009143
						CHANNELS 3 Zrotation Yrotation Xrotation
						JOINT RightForeArm
						{
							OFFSET -0.253742 -0.013329 -0.021401
							CHANNELS 3 Zrotation Yrotation Xrotation
							JOINT RightHand
							{
								OFFSET -0.255298 0.007772 -0.005559
								CHANNELS 3 Zrotation Yrotation Xrotation
								End Site
								{
									OFFSET 0.000000 0.000000 0.000000
								}
							}
						}
					}
				}
			}
		}
	}
}
MOTION
Frames: 8
Frame Time: 0.050000
0.000000 0.883105 0.000000 -0.173887 2.944256 0.598026 9.854549 -0.485899 -25.314017 -13.952800 4.625092 38.172815 9.927756 20.173227 -2.753897 0.000000 0.000000 0.000000 -7.219987 0.949384 -26.914572 10.884254 -4.530103 43.387064 -8.226396 -20.247154 -4.581599 0.000000 0.000000 0.000000 0.782531 -1.080047 19.961604 -1.065441 0.536573 -1.076091 -2.004549 -1.239322 10.377047 3.913209 -0.825121 -20.455012 0.000000 0.000000 0.000000 -11.393613 -21.052958 8.690098 -44.043657 -28.544264 4.573396 -54.458495 -79.104036 50.414709 0.000000 0.000000 0.000000 7.619199 20.271664 8.086875 42.895284 35.636972 7.879470 0.992094 73.020865 4.243797 0.000000 0.000000 0.000000 
-0.000052 0.878114 0.002284 -0.334416 3.303917 1.587646 10.736820 -0.373564 -26.431917 -15.216230 5.286385 39.505021 10.044747 20.464450 -2.807952 0.000000 0.000000 0.000000 -7.769179 0.834368 -28.134870 12.733876 -5.694277 43.974606 -8.655829 -21.404764 -4.648076 0.000000 0.000000 0.000000 1.030103 -1.010817 17.851367 -1.139458 0.540646 0.007745 -1.879107 -1.486913 10.269674 4.055991 -0.885450 -20.721336 0.000000 0.000000 0.000000 -13.206989 -20.954040 8.923813 -40.174105 -27.714809 3.679709 -96.301066 -78.887348 90.068985 0.000000 0.000000 0.000000 6.061110 19.806630 7.699034 42.487906 36.362558 8.038356 13.663524 78.362413 15.056467 0.000000 0.000000 0.000000 
-0.000021 0.875985 0.003404 -0.525834 3.393477 1.388952 10.084347 -0.516274 -26.653080 -14.773810 5.119797 40.272167 10.804879 22.024091 -4.498923 0.000000 0.000000 0.000000 -7.880206 0.793474 -27.932520 13.605499 -6.074052 43.023580 -9.348191 -23.216546 -4.854973 0.000000 0.000000 0.000000 1.335229 -1.019991 17.164683 -0.580251 0.241122 1.011590 -2.659913 -1.927383 9.931340 4.047883 -1.174399 -18.285938 0.000000 0.000000 0.000000 -12.888592 -21.192276 9.049093 -38.570192 -26.688164 3.121037 -119.721186 -77.511969 113.693005 0.000000 0.000000 0.000000 5.647093 20.159445 7.746631 35.989326 36.642948 6.446448 36.524840 83.918920 37.055838 0.000000 0.000000 0.000000 
0.000131 0.875627 0.003039 -0.337402 3.926382 1.299029 9.703342 -0.657734 -27.511040 -15.072622 5.296152 41.780401 11.094738 22.591429 -3.143077 0.000000 0.000000 0.000000 -8.119875 0.694142 -28.272082 13.752377 -6.388250 43.875764 -9.445745 -23.409280 -4.390152 0.000000 0.000000 0.000000 1.436231 -1.000744 16.451414 -0.916929 0.354722 2.485292 -2.514347 -2.288250 9.713839 3.445223 -0.824046 -18.284589 0.000000 0.000000 0.000000 -10.277832 -20.204861 8.255941 -36.405603 -27.750176 3.174572 -140.983306 -72.347823 134.487496 0.000000 0.000000 0.000000 2.035117 18.523250 6.654465 32.409815 38.115818 5.953995 127.700791 86.190074 129.009042 0.000000 0.000000 0.000000 
0.000484 0.876121 0.001417 -0.385214 4.366974 0.918212 9.640194 -0.711244 -27.813516 -14.799174 5.122541 42.566561 10.733278 21.834404 -2.749623 0.000000 0.000000 0.000000 -8.102640 0.646058 -27.573465 13.674922 -6.369582 43.251743 -9.326579 -22.981616 -3.341694 0.000000 0.000000 0.000000 1.212702 -0.993953 16.748098 -0.915345 0.360955 2.196802 -1.953336 -2.206664 10.302130 2.837994 -0.478157 -17.980760 0.000000 0.000000 0.000000 -7.574885 -20.647221 8.070548 -32.394731 -27.860316 2.611726 -155.552319 -68.138693 151.165018 0.000000 0.000000 0.000000 -1.297874 18.734706 6.358815 26.562572 36.424664 4.037095 -174.287057 81.524707 -168.416363 0.000000 0.000000 0.000000 
0.000952 0.877310 -0.001156 -0.369548 4.844149 1.218730 9.668663 -0.766927 -28.293871 -14.791068 5.005820 42.442562 10.558276 21.494131 -2.522978 0.000000 0.000000 0.000000 -8.232628 0.583005 -28.674006 13.654049 -6.493148 43.415948 -9.197314 -22.636465 -3.088565 0.000000 0.000000 0.000000 1.165260 -0.946864 15.962872 -0.693908 0.229889 2.569939 -1.522401 -1.471210 10.785853 2.764319 -0.187849 -19.494176 0.000000 0.000000 0.000000 -5.151426 -20.765712 7.709141 -29.227601 -27.388939 2.053895 -163.755378 -64.421681 161.100355 0.000000 0.000000 0.000000 -4.221704 18.092555 5.828414 22.546856 34.970470 2.854861 -159.816060 76.882007 -148.802141 0.000000 0.000000 0.000000 
0.001625 0.878944 -0.003962 -0.463406 5.206528 0.999661 9.684050 -0.786915 -28.138998 -14.614861 4.805736 42.153711 10.690841 21.749423 -1.985706 0.000000 0.000000 0.000000 -8.063498 0.586697 -28.534093 13.805296 -6.616434 43.077696 -9.255843 -22.708003 -2.436939 0.000000 0.000000 0.000000 1.127702 -0.965956 16.210325 -0.420729 0.122118 1.814729 -1.421321 -0.799281 11.225805 3.403723 -0.498515 -19.198478 0.000000 0.000000 0.000000 -2.795794 -19.344903 6.819351 -26.385252 -27.131093 1.606511 -170.096307 -62.732790 170.053183 0.000000 0.000000 0.000000 -5.683882 17.459043 5.444983 19.222642 33.432371 1.941296 -147.748183 74.229165 -131.618900 0.000000 0.000000 0.000000 
0.002443 0.880103 -0.006610 -0.394277 4.940345 1.347594 9.811944 -0.753595 -28.556011 -14.905153 5.033008 42.269233 10.583431 21.564687 -1.820689 0.000000 0.000000 0.000000 -8.103655 0.611218 -29.137108 13.526441 -6.420438 43.265240 -8.835531 -21.685197 -2.384709 0.000000 0.000000 0.000000 1.035458 -0.893459 15.406137 -0.400175 0.089438 2.362157 -1.311012 -0.256111 10.891553 3.247114 -0.403552 -18.689127 0.000000 0.000000 0.000000 -1.481495 -17.777410 6.112701 -23.714014 -26.306368 1.148475 -173.385830 -62.934443 175.015223 0.000000 0.000000 0.000000 -5.716367 16.471903 5.148813 16.570500 33.487161 1.418854 -137.856400 73.583393 -118.843598 0.000000 0.000000 0.000000 
